<svg xmlns="http://www.w3.org/2000/svg"
	xmlns:xlink="http://www.w3.org/1999/xlink" version="1.1" x="0px" y="0px" viewBox="0 0 128 128" xml:space="preserve">
	<g fill="#8CAD26">
		<rect x="9.455" y="24.709" width="16.726" height="10.766"></rect>
		<rect x="9.455" y="40.869" width="16.726" height="10.766"></rect>
		<rect x="9.455" y="57.03" width="16.726" height="10.765"></rect>
		<rect x="40.346" y="24.709" width="16.726" height="10.766"></rect>
		<rect x="40.346" y="40.869" width="16.726" height="10.766"></rect>
		<rect x="40.346" y="57.03" width="16.726" height="10.765"></rect>
		<rect x="71.236" y="24.709" width="16.727" height="10.766"></rect>
		<rect x="102.127" y="24.709" width="16.727" height="10.766"></rect>
		<rect x="71.236" y="40.869" width="16.727" height="10.766"></rect>
		<path d="M118.304,14.408H9.695C4.349,14.408,0,18.757,0,24.104v79.792c0,5.348,4.349,9.696,9.695,9.696h108.608   c5.348,0,9.696-4.349,9.696-9.696V24.104C128,18.757,123.651,14.408,118.304,14.408z M65.212,19.256h28.365v89.488H65.212V19.256z    M62.789,108.744H34.423V19.256h28.365V108.744z M4.848,103.896V24.104c0-2.674,2.174-4.848,4.848-4.848H32v89.488H9.695   C7.022,108.744,4.848,106.568,4.848,103.896z M123.152,103.896c0,2.673-2.176,4.849-4.849,4.849H96.001V19.256h22.303   c2.673,0,4.849,2.174,4.849,4.848V103.896z"></path>
	</g>
</svg>
